PathFileType	4	(X/Y/Z)	C:\Users\dbl\Desktop\20210112(1)\20210112\bx_y_10_901.trc
DataRate	CameraRate	NumFrames	NumMarkers	Units	OrigDataRate	OrigDataStartFrame	OrigNumFrames
50.00	50.00	       4	43	mm	50.00	199	       530
Frame#	Time	Top.Head			R.Acromium			L.Acromium			Sternum			R.ASIS			L.ASIS			V.Sacral			R.Thigh.Upper			R.Thigh.Front			R.Thigh.Rear			R.Knee.Lat			R.Knee.Med			R.Shank.Upper			R.Shank.Front			R.Shank.Rear			R.Ankle.Lat			R.Midfoot.Lat			R.Toe.Lat			R.Toe.Tip			R.Toe.Med			R.Ankle.Med			R.Midfoot.Sup			R.Heel			L.Thigh.Upper			L.Thigh.Front			L.Thigh.Rear			L.Knee.Lat			L.Knee.Med			L.Shank.Upper			L.Shank.Front			L.Shank.Rear			L.Ankle.Lat			L.Midfoot.Lat			L.Toe.Lat			L.Toe.Tip			L.Toe.Med			L.Ankle.Med			L.Midfoot.Sup			L.Heel			origin1 front left			origin2 front right			origin 3 back right			origin 4 back leftt			
		X1	Y1	Z1	X2	Y2	Z2	X3	Y3	Z3	X4	Y4	Z4	X5	Y5	Z5	X6	Y6	Z6	X7	Y7	Z7	X8	Y8	Z8	X9	Y9	Z9	X10	Y10	Z10	X11	Y11	Z11	X12	Y12	Z12	X13	Y13	Z13	X14	Y14	Z14	X15	Y15	Z15	X16	Y16	Z16	X17	Y17	Z17	X18	Y18	Z18	X19	Y19	Z19	X20	Y20	Z20	X21	Y21	Z21	X22	Y22	Z22	X23	Y23	Z23	X24	Y24	Z24	X25	Y25	Z25	X26	Y26	Z26	X27	Y27	Z27	X28	Y28	Z28	X29	Y29	Z29	X30	Y30	Z30	X31	Y31	Z31	X32	Y32	Z32	X33	Y33	Z33	X34	Y34	Z34	X35	Y35	Z35	X36	Y36	Z36	X37	Y37	Z37	X38	Y38	Z38	X39	Y39	Z39	X40	Y40	Z40	X41	Y41	Z41	X42	Y42	Z42	X43	Y43	Z43	

199	3.960	-410.04868	86.26784	1671.85022	-507.20474	-90.91583	1381.14185	-503.42883	261.50644	1389.51208	-524.10266	75.14314	1269.30029	-762.45068	-21.43713	1017.93079	-754.32916	196.69525	1033.57239	-954.26019	78.79314	1078.88647	-820.22180	-83.54701	862.85626	-743.73395	-17.04529	807.04651	-833.04919	-65.34769	708.50812	-811.36591	-40.72610	609.87238	-790.44440	65.49232	567.12372	-813.21014	-36.49265	558.97485	-753.63147	6.56738	524.61224	-840.31049	-46.55952	472.24695	-773.85968	-14.17860	201.75838	-664.32263	-70.46567	159.99860	-622.67389	-81.38432	156.26952	-562.91785	-38.48085	163.41034	-605.67053	17.08871	170.08527	-727.93335	68.72119	221.28467	-678.06128	51.51581	164.11798	-799.07941	47.95384	171.23610	-809.28717	267.79669	873.34705	-747.14709	198.91904	814.66675	-835.16412	275.64365	745.04944	-841.09503	246.11678	627.73218	-793.46045	138.04573	567.47528	-828.26337	242.56599	566.46265	-766.65131	200.06978	534.92224	-850.78558	255.55171	487.00113	-776.94965	227.91663	201.13333	-666.04462	298.72467	159.25917	-628.21515	305.84848	160.57631	-563.34265	256.67899	165.85020	-598.50269	222.28506	173.93863	-721.70190	157.05006	222.25974	-678.76459	175.40074	162.80220	-801.41315	177.17067	180.71777	-528.14417	303.91708	146.37804	-518.14301	-72.50739	143.06406	-876.22772	-78.40403	141.34386	-882.76825	295.87601	144.54483	
200	3.980	-424.53174	85.13098	1685.53003	-515.43384	-92.05705	1392.49377	-511.12372	260.95709	1400.49609	-528.76392	75.34776	1277.52161	-759.81396	-21.22436	1020.20532	-751.75586	197.33221	1035.87891	-952.26794	79.61677	1078.20935	-817.33594	-82.95302	863.47241	-740.66516	-16.99077	807.35315	-830.56952	-64.68068	709.12238	-809.30426	-40.23542	610.27283	-788.20276	65.79686	567.22992	-811.34003	-36.07648	559.42407	-751.68750	6.80934	524.80170	-838.76550	-46.17039	472.85706	-773.77246	-13.94945	201.91193	-664.34546	-70.46372	159.97429	-622.68506	-81.43548	156.26616	-562.79865	-38.70362	163.28323	-605.51013	17.08346	170.03067	-727.69000	68.79416	221.05746	-677.97974	51.54560	163.89473	-798.93176	48.13818	171.34024	-805.24316	267.93039	874.10254	-743.10266	199.07280	815.41614	-830.87592	276.18967	746.09222	-838.19348	246.35760	628.69348	-791.04846	138.36858	568.05530	-825.66864	242.93733	567.10504	-764.27985	200.19707	535.16968	-848.47125	256.08047	487.75391	-776.71667	227.93861	201.34541	-665.96857	298.66577	159.36819	-628.13202	305.80475	160.62088	-563.16681	256.58847	165.83327	-598.45416	222.20177	173.78206	-721.40070	156.83092	222.18442	-678.70239	175.38181	162.56654	-801.27112	177.18658	180.83257	-528.13892	303.95697	146.42293	-518.15167	-72.54824	143.03789	-876.36780	-78.21492	141.21654	-882.88055	295.85770	144.56552	
201	4.000	-438.97021	84.03714	1698.61267	-523.83472	-92.84177	1403.33875	-518.85547	260.48975	1411.07739	-533.51147	75.55962	1285.90051	-756.98499	-20.94413	1022.42688	-748.80035	197.82364	1038.25256	-950.16467	80.49126	1077.56702	-814.39063	-82.16085	864.11066	-737.61212	-16.98748	807.69800	-827.93207	-64.18200	709.84656	-807.15216	-39.78552	610.72058	-785.83661	66.18544	567.41882	-809.38635	-35.71843	559.87103	-749.70276	7.10849	524.89502	-837.16626	-45.83990	473.47052	-773.69775	-13.75610	202.05333	-664.35699	-70.48951	159.94244	-622.70056	-81.48685	156.27861	-562.70416	-38.89761	163.17085	-605.39624	17.06765	169.95172	-727.42822	68.95026	220.92816	-677.91052	51.57220	163.65187	-798.79504	48.28395	171.42532	-801.15826	268.12067	874.81531	-739.01392	199.23729	816.07996	-826.54565	277.07004	747.26880	-835.27325	246.53862	629.62274	-788.54736	138.67044	568.56372	-823.03363	243.24084	567.71729	-762.00366	200.20061	535.32037	-846.21686	256.49863	488.49219	-776.53986	227.95390	201.51816	-665.91284	298.61960	159.43806	-628.08453	305.77911	160.69284	-563.03394	256.54346	165.81351	-598.40405	222.11322	173.66214	-721.15399	156.67052	222.04512	-678.63562	175.34933	162.35405	-801.14392	177.22150	180.90521	-528.14734	303.99161	146.49219	-518.15778	-72.55099	143.00967	-876.46375	-78.08533	141.13078	-882.90912	295.88437	144.58553	
202	4.020	-453.31369	82.93561	1711.08337	-532.35260	-93.46118	1413.73621	-526.66553	260.13422	1421.24292	-538.34888	75.77949	1294.44214	-754.06250	-20.65078	1024.61353	-745.49744	198.17851	1040.63245	-947.91846	81.38747	1076.91321	-811.38745	-81.16018	864.78101	-734.52380	-17.04148	808.06647	-825.31311	-63.65766	710.59222	-804.92487	-39.37275	611.25543	-783.33197	66.67072	567.71149	-807.29797	-35.36815	560.27655	-747.65607	7.44473	524.94513	-835.53564	-45.50458	474.04739	-773.62738	-13.59876	202.20477	-664.36115	-70.54630	159.91212	-622.72925	-81.54533	156.29179	-562.62140	-39.05238	163.11504	-605.33124	17.02916	169.88144	-727.12170	69.17426	220.91585	-677.85345	51.62288	163.43124	-798.66626	48.42116	171.47084	-797.02759	268.44394	875.54578	-735.00214	199.52222	816.83289	-822.17810	278.18079	748.51825	-832.38171	246.63408	630.55481	-786.06531	138.89700	569.02313	-820.46887	243.45781	568.35126	-759.84967	200.15199	535.39685	-844.10596	256.73337	489.16940	-776.45129	227.97110	201.62238	-665.91748	298.58005	159.46931	-628.09106	305.76068	160.80006	-562.99561	256.55566	165.81554	-598.36633	222.06467	173.64421	-720.94836	156.57411	221.88347	-678.58380	175.32085	162.21104	-801.06885	177.28853	180.90182	-528.16296	304.01523	146.53874	-518.15314	-72.51563	143.00189	-876.47009	-78.03999	141.07726	-882.85376	295.91690	144.57568	
